<?xml version="1.0" encoding="iso-8859-1"?>
<!-- Generator: Adobe Illustrator 18.0.0, SVG Export Plug-In . SVG Version: 6.00 Build 0)  -->
<!DOCTYPE svg PUBLIC "-//W3C//DTD SVG 1.1//EN" "http://www.w3.org/Graphics/SVG/1.1/DTD/svg11.dtd">
<svg version="1.1" id="Capa_1" xmlns="http://www.w3.org/2000/svg" xmlns:xlink="http://www.w3.org/1999/xlink" x="0px" y="0px"
	 viewBox="0 0 335.314 335.314" style="enable-background:new 0 0 335.314 335.314;" xml:space="preserve">
<g>
	<g>
		<path d="M284.536,70.198c-31.343-17.338-72.852-26.887-116.88-26.887S82.119,52.86,50.777,70.198
			C18.033,88.312,0,112.891,0,139.409c0,0.012,0.002,0.022,0.002,0.033c0,0.014-0.002,0.027-0.002,0.042l0.569,56.419
			c-0.172,16.934,7.273,33.509,21.536,47.938c29.364,29.707,85.137,48.162,145.553,48.162c44.028,0,85.536-9.549,116.879-26.887
			c32.744-18.114,50.777-42.694,50.777-69.211v-56.497C335.314,112.891,317.281,88.312,284.536,70.198z M58.039,83.323
			c29.156-16.129,68.086-25.012,109.617-25.012c41.531,0,80.461,8.883,109.618,25.013c27.755,15.353,43.04,35.271,43.04,56.085
			v29.174c-0.807,11.729-1.542,21.048-15.515,31.44c-15.324,9.083-25.153,6.272-37.574,2.724
			c-10.619-3.036-22.647-6.472-37.975-1.311c-15.917,3.988-23.686,13.391-30.548,21.692c-7.689,9.304-13.771,16.663-31.057,17.472
			c-17.287-0.811-23.369-8.171-31.058-17.475c-6.861-8.302-14.632-17.705-30.549-21.695c-15.325-5.161-27.351-1.726-37.97,1.309
			c-12.422,3.55-22.248,6.355-37.568-2.724c-12.491-9.294-14.313-17.724-15.162-26.956l-0.339-33.674
			C15.012,118.581,30.295,98.67,58.039,83.323z M277.275,251.991c-29.156,16.13-68.086,25.013-109.617,25.013
			c-56.552,0-108.237-16.748-134.885-43.707c-7.768-7.858-12.916-16.101-15.424-24.617c1.565,1.773,4.932,3.898,5.133,4.019
			c21.076,12.645,36.289,8.299,49.708,4.464c9.808-2.804,18.277-5.223,29.3-1.436c0.216,0.074,0.436,0.139,0.658,0.193
			c11.308,2.762,16.67,9.249,22.878,16.762c8.484,10.267,18.101,21.903,42.305,22.92c0.105,0.005,0.21,0.007,0.314,0.007
			c0.105,0,0.209-0.002,0.314-0.007c24.202-1.014,33.819-12.65,42.305-22.916c6.209-7.512,11.57-13.999,22.877-16.76
			c0.223-0.055,0.442-0.119,0.659-0.193c11.021-3.79,19.494-1.366,29.304,1.437c13.423,3.837,28.636,8.183,49.715-4.463
			c0.201-0.121,3.416-2.106,5.695-4.523C313.735,224.456,299.513,239.689,277.275,251.991z"/>
		<path d="M242.172,138.206c0-10.611-8.62-20.007-24.271-26.454c-13.543-5.579-31.387-8.651-50.244-8.651s-36.7,3.072-50.242,8.651
			c-15.651,6.447-24.271,15.843-24.271,26.454c0,10.612,8.62,20.007,24.271,26.455c13.542,5.578,31.385,8.65,50.242,8.65
			c18.858,0,36.702-3.072,50.244-8.65C233.552,158.212,242.172,148.818,242.172,138.206z M167.656,118.1
			c35.778,0,59.516,12.102,59.516,20.105c0,2.191-2.163,5.543-7.777,8.985c-13.573-5.919-32.278-9.3-51.738-9.3
			c-19.459,0-38.163,3.381-51.738,9.299c-5.612-3.441-7.775-6.793-7.775-8.984C108.143,130.202,131.879,118.1,167.656,118.1z
			 M139.406,155.606c8.635-1.762,18.289-2.715,28.25-2.715c9.961,0,19.615,0.953,28.25,2.716c-8.624,1.765-18.236,2.704-28.25,2.704
			C157.642,158.311,148.03,157.372,139.406,155.606z"/>
		<path d="M93.162,104.497c1.293,0,2.604-0.335,3.799-1.038l21.076-12.411c3.569-2.102,4.759-6.699,2.657-10.269
			c-2.102-3.567-6.697-4.757-10.269-2.657L89.35,90.533c-3.569,2.102-4.759,6.699-2.657,10.269
			C88.091,103.175,90.593,104.497,93.162,104.497z"/>
		<path d="M176.768,185.015l-23.119,7.983c-3.915,1.352-5.993,5.622-4.641,9.537c1.071,3.105,3.979,5.054,7.089,5.054
			c0.812,0,1.638-0.133,2.448-0.413l23.119-7.983c3.915-1.352,5.993-5.622,4.641-9.537
			C184.954,185.742,180.684,183.661,176.768,185.015z"/>
		<path d="M150.556,82.928l23.083,8.092c0.821,0.287,1.658,0.424,2.482,0.424c3.097,0,5.995-1.933,7.078-5.021
			c1.37-3.909-0.688-8.188-4.597-9.56l-23.083-8.092c-3.911-1.369-8.189,0.688-9.559,4.597
			C144.589,77.278,146.647,81.557,150.556,82.928z"/>
		<path d="M123.44,177.651l-23.083-8.092c-3.912-1.368-8.188,0.688-9.56,4.597c-1.37,3.909,0.688,8.188,4.597,9.559l23.083,8.092
			c0.821,0.287,1.658,0.424,2.481,0.424c3.097,0,5.995-1.933,7.078-5.021C129.407,183.301,127.349,179.022,123.44,177.651z"/>
		<path d="M263.82,150.81c-3.99,1.11-6.325,5.246-5.215,9.236c0.924,3.318,3.938,5.491,7.222,5.491c0.665,0,1.342-0.09,2.015-0.276
			l23.564-6.558c3.99-1.11,6.325-5.246,5.215-9.236c-1.11-3.991-5.241-6.326-9.236-5.215L263.82,150.81z"/>
		<path d="M42.652,170.114c1.159,0,2.335-0.27,3.435-0.838l21.733-11.222c3.681-1.9,5.124-6.425,3.224-10.104
			c-1.901-3.683-6.429-5.125-10.104-3.224l-21.733,11.222c-3.681,1.9-5.124,6.425-3.224,10.104
			C37.314,168.633,39.937,170.114,42.652,170.114z"/>
		<path d="M46.199,123.239c0.098,0,0.195-0.002,0.294-0.006l24.442-0.941c4.139-0.159,7.365-3.644,7.205-7.783
			c-0.158-4.139-3.621-7.346-7.783-7.205l-24.442,0.941c-4.139,0.159-7.365,3.644-7.205,7.783
			C38.865,120.068,42.19,123.239,46.199,123.239z"/>
		<path d="M256.06,119.909l23.867,5.355c0.553,0.124,1.104,0.184,1.648,0.184c3.432,0,6.528-2.371,7.312-5.86
			c0.906-4.041-1.635-8.053-5.677-8.96l-23.867-5.355c-4.037-0.901-8.052,1.635-8.96,5.677
			C249.477,114.99,252.018,119.002,256.06,119.909z"/>
		<path d="M217.933,173.188c-4.113-0.16-7.613,3.091-7.76,7.23c-0.146,4.14,3.091,7.614,7.23,7.76l24.445,0.863
			c0.09,0.003,0.18,0.005,0.27,0.005c4.02,0,7.348-3.186,7.49-7.235c0.146-4.14-3.091-7.614-7.23-7.76L217.933,173.188z"/>
		<path d="M213.258,99.925c0.669,0,1.35-0.091,2.026-0.279l23.556-6.595c3.988-1.117,6.316-5.256,5.2-9.245
			c-1.117-3.987-5.255-6.314-9.244-5.2l-23.557,6.595c-3.988,1.117-6.316,5.256-5.2,9.245
			C206.967,97.758,209.979,99.925,213.258,99.925z"/>
	</g>
</g>
<g>
</g>
<g>
</g>
<g>
</g>
<g>
</g>
<g>
</g>
<g>
</g>
<g>
</g>
<g>
</g>
<g>
</g>
<g>
</g>
<g>
</g>
<g>
</g>
<g>
</g>
<g>
</g>
<g>
</g>
</svg>
